<?xml version="1.0" standalone="no"?>
<!DOCTYPE svg PUBLIC "-//W3C//DTD SVG 20010904//EN"
 "http://www.w3.org/TR/2001/REC-SVG-20010904/DTD/svg10.dtd">
<svg version="1.0" xmlns="http://www.w3.org/2000/svg"
 width="853.000000pt" height="853.000000pt" viewBox="0 0 853.000000 853.000000"
 preserveAspectRatio="xMidYMid meet">
<metadata>
Created by potrace 1.14, written by Peter Selinger 2001-2017
</metadata>
<g transform="translate(0.000000,853.000000) scale(0.100000,-0.100000)"
fill="#000000" stroke="none">
<path d="M0 4265 l0 -4265 4265 0 4265 0 0 4265 0 4265 -4265 0 -4265 0 0
-4265z m1970 3598 c0 -5 -35 -30 -77 -58 -424 -275 -892 -743 -1168 -1168 -27
-42 -53 -77 -57 -77 -10 0 -11 1294 -1 1303 9 10 1303 9 1303 0z m5900 -650
l0 -656 -71 104 c-312 454 -725 862 -1166 1154 -40 26 -73 50 -73 51 0 2 295
4 655 4 l655 0 0 -657z m-2412 452 c760 -261 1432 -800 1875 -1503 91 -145
223 -407 290 -577 56 -140 130 -371 125 -387 -2 -4 -579 568 -1283 1272
l-1280 1280 70 -19 c39 -11 130 -40 203 -66z m-3388 -1200 c-701 -701 -1276
-1269 -1278 -1262 -1 7 13 62 31 122 328 1061 1136 1919 2174 2311 123 46 302
103 328 103 13 1 -424 -443 -1255 -1274z m3935 -475 l1730 -1730 -1733 -1733
-1732 -1732 -1732 1732 -1733 1733 1730 1730 c951 951 1732 1730 1735 1730 3
0 784 -779 1735 -1730z m-2673 -5208 c-5 -1 -62 14 -128 33 -365 111 -778 322
-1091 557 -225 168 -485 419 -657 633 -110 137 -273 382 -359 540 -115 211
-231 494 -296 725 l-21 75 1280 -1280 c704 -704 1276 -1281 1272 -1283z m4393
2447 c-96 -334 -298 -750 -508 -1044 -345 -483 -783 -863 -1303 -1132 -210
-109 -549 -241 -684 -268 -30 -6 134 163 1240 1269 701 701 1276 1273 1278
1271 2 -2 -8 -45 -23 -96z m-7010 -1331 c289 -438 684 -839 1134 -1152 l124
-86 -657 0 -656 0 0 655 c0 360 2 655 4 655 1 0 25 -33 51 -72z m7152 -1235
c-2 -2 -295 -2 -651 -1 l-648 3 117 79 c422 284 838 704 1121 1130 l59 89 3
-648 c1 -357 1 -650 -1 -652z"/>
</g>
</svg>
